HIERARCHY
ROOT mixamorig:Hips
{
	OFFSET 0.000000 104.274902 0.000000
	CHANNELS 6 Xposition Yposition Zposition Xrotation Yrotation Zrotation
	JOINT mixamorig:Spine
	{
		OFFSET 0.000000 10.181549 0.131524
		CHANNELS 6 Xposition Yposition Zposition Xrotation Yrotation Zrotation
		JOINT mixamorig:Spine1
		{
			OFFSET 0.000000 9.893990 -1.470706
			CHANNELS 3 Xrotation Yrotation Zrotation
			JOINT mixamorig:Spine2
			{
				OFFSET 0.000000 9.220787 -1.370637
				CHANNELS 3 Xrotation Yrotation Zrotation
				JOINT mixamorig:Neck
				{
					OFFSET 0.000000 16.740372 -2.049022
					CHANNELS 6 Xposition Yposition Zposition Xrotation Yrotation Zrotation
					JOINT mixamorig:Head
					{
						OFFSET 0.000000 9.617859 1.684976
						CHANNELS 6 Xposition Yposition Zposition Xrotation Yrotation Zrotation
						JOINT mixamorig:HeadTop_End
						{
							OFFSET 0.000000 22.037384 7.501072
							CHANNELS 6 Xposition Yposition Zposition Xrotation Yrotation Zrotation
							End Site
							{
								OFFSET 0.000000 23.106567 -2.828246
							}
						}
					}
				}
				JOINT mixamorig:RightShoulder
				{
					OFFSET -4.570000 11.014877 -2.160840
					CHANNELS 6 Xposition Yposition Zposition Xrotation Yrotation Zrotation
					JOINT mixamorig:RightArm
					{
						OFFSET -10.592867 -0.524796 -2.232105
						CHANNELS 3 Xrotation Yrotation Zrotation
						JOINT mixamorig:RightForeArm
						{
							OFFSET -27.841497 0.000000 -0.000002
							CHANNELS 3 Xrotation Yrotation Zrotation
							JOINT mixamorig:RightHand
							{
								OFFSET -28.328812 0.000000 -0.000001
								CHANNELS 3 Xrotation Yrotation Zrotation
								JOINT mixamorig:RightHandThumb1
								{
									OFFSET -2.464798 -1.573990 2.681911
									CHANNELS 6 Xposition Yposition Zposition Xrotation Yrotation Zrotation
									JOINT mixamorig:RightHandThumb2
									{
										OFFSET -3.244781 -1.873383 1.873376
										CHANNELS 3 Xrotation Yrotation Zrotation
										JOINT mixamorig:RightHandThumb3
										{
											OFFSET -2.646263 -1.527817 1.527818
											CHANNELS 6 Xposition Yposition Zposition Xrotation Yrotation Zrotation
											JOINT mixamorig:RightHandThumb4
											{
												OFFSET -1.994591 -1.151581 1.151575
												CHANNELS 6 Xposition Yposition Zposition Xrotation Yrotation Zrotation
												End Site
												{
													OFFSET -1.860176 -1.142715 1.365483
												}
											}
										}
									}
								}
								JOINT mixamorig:RightHandIndex1
								{
									OFFSET -9.108299 -0.517883 2.259803
									CHANNELS 6 Xposition Yposition Zposition Xrotation Yrotation Zrotation
									JOINT mixamorig:RightHandIndex2
									{
										OFFSET -3.699997 0.000000 0.000000
										CHANNELS 3 Xrotation Yrotation Zrotation
										JOINT mixamorig:RightHandIndex3
										{
											OFFSET -2.850006 0.000000 0.000000
											CHANNELS 3 Xrotation Yrotation Zrotation
											JOINT mixamorig:RightHandIndex4
											{
												OFFSET -2.772194 0.000000 0.000000
												CHANNELS 3 Xrotation Yrotation Zrotation
												End Site
												{
													OFFSET -2.772202 0.000000 -0.000484
												}
											}
										}
									}
								}
								JOINT mixamorig:RightHandMiddle1
								{
									OFFSET -9.532501 0.000000 -0.000000
									CHANNELS 6 Xposition Yposition Zposition Xrotation Yrotation Zrotation
									JOINT mixamorig:RightHandMiddle2
									{
										OFFSET -3.699997 0.000000 0.000000
										CHANNELS 3 Xrotation Yrotation Zrotation
										JOINT mixamorig:RightHandMiddle3
										{
											OFFSET -2.949997 0.000000 0.000000
											CHANNELS 3 Xrotation Yrotation Zrotation
											JOINT mixamorig:RightHandMiddle4
											{
												OFFSET -2.946594 0.000000 0.000000
												CHANNELS 3 Xrotation Yrotation Zrotation
												End Site
												{
													OFFSET -2.946602 0.000000 -0.000982
												}
											}
										}
									}
								}
								JOINT mixamorig:RightHandRing1
								{
									OFFSET -9.103600 -0.043106 -1.865100
									CHANNELS 6 Xposition Yposition Zposition Xrotation Yrotation Zrotation
									JOINT mixamorig:RightHandRing2
									{
										OFFSET -3.379303 0.000000 0.000000
										CHANNELS 3 Xrotation Yrotation Zrotation
										JOINT mixamorig:RightHandRing3
										{
											OFFSET -2.889694 0.000000 0.000000
											CHANNELS 3 Xrotation Yrotation Zrotation
											JOINT mixamorig:RightHandRing4
											{
												OFFSET -2.638802 0.000000 0.000000
												CHANNELS 3 Xrotation Yrotation Zrotation
												End Site
												{
													OFFSET -2.638802 0.000000 0.004218
												}
											}
										}
									}
								}
								JOINT mixamorig:RightHandPinky1
								{
									OFFSET -8.076698 -0.486725 -3.806299
									CHANNELS 6 Xposition Yposition Zposition Xrotation Yrotation Zrotation
									JOINT mixamorig:RightHandPinky2
									{
										OFFSET -3.600006 0.000000 0.000000
										CHANNELS 3 Xrotation Yrotation Zrotation
										JOINT mixamorig:RightHandPinky3
										{
											OFFSET -2.099998 0.000000 0.000000
											CHANNELS 3 Xrotation Yrotation Zrotation
											JOINT mixamorig:RightHandPinky4
											{
												OFFSET -2.115791 0.000000 0.000000
												CHANNELS 3 Xrotation Yrotation Zrotation
												End Site
												{
													OFFSET -2.115799 0.000000 0.000174
												}
											}
										}
									}
								}
							}
						}
					}
				}
				JOINT mixamorig:LeftShoulder
				{
					OFFSET 4.570400 11.014679 -2.160816
					CHANNELS 6 Xposition Yposition Zposition Xrotation Yrotation Zrotation
					JOINT mixamorig:LeftArm
					{
						OFFSET 10.592373 -0.524597 -2.232116
						CHANNELS 3 Xrotation Yrotation Zrotation
						JOINT mixamorig:LeftForeArm
						{
							OFFSET 27.841488 0.000000 0.000001
							CHANNELS 3 Xrotation Yrotation Zrotation
							JOINT mixamorig:LeftHand
							{
								OFFSET 28.328808 0.000000 -0.000000
								CHANNELS 3 Xrotation Yrotation Zrotation
								JOINT mixamorig:LeftHandThumb1
								{
									OFFSET 2.466103 -1.576202 2.681698
									CHANNELS 6 Xposition Yposition Zposition Xrotation Yrotation Zrotation
									JOINT mixamorig:LeftHandThumb2
									{
										OFFSET 3.243317 -1.872528 1.872530
										CHANNELS 3 Xrotation Yrotation Zrotation
										JOINT mixamorig:LeftHandThumb3
										{
											OFFSET 2.647881 -1.528763 1.528754
											CHANNELS 6 Xposition Yposition Zposition Xrotation Yrotation Zrotation
											JOINT mixamorig:LeftHandThumb4
											{
												OFFSET 1.998924 -1.154083 1.154080
												CHANNELS 6 Xposition Yposition Zposition Xrotation Yrotation Zrotation
												End Site
												{
													OFFSET 1.884041 -1.149155 1.337651
												}
											}
										}
									}
								}
								JOINT mixamorig:LeftHandIndex1
								{
									OFFSET 9.109299 -0.518005 2.259900
									CHANNELS 6 Xposition Yposition Zposition Xrotation Yrotation Zrotation
									JOINT mixamorig:LeftHandIndex2
									{
										OFFSET 3.699997 0.000000 0.000000
										CHANNELS 3 Xrotation Yrotation Zrotation
										JOINT mixamorig:LeftHandIndex3
										{
											OFFSET 2.850006 0.000000 0.000000
											CHANNELS 3 Xrotation Yrotation Zrotation
											JOINT mixamorig:LeftHandIndex4
											{
												OFFSET 2.774895 0.000000 0.000000
												CHANNELS 3 Xrotation Yrotation Zrotation
												End Site
												{
													OFFSET 2.774902 0.000000 -0.000072
												}
											}
										}
									}
								}
								JOINT mixamorig:LeftHandMiddle1
								{
									OFFSET 9.533401 0.000000 0.000000
									CHANNELS 6 Xposition Yposition Zposition Xrotation Yrotation Zrotation
									JOINT mixamorig:LeftHandMiddle2
									{
										OFFSET 3.699997 0.000000 0.000000
										CHANNELS 3 Xrotation Yrotation Zrotation
										JOINT mixamorig:LeftHandMiddle3
										{
											OFFSET 2.949997 0.000000 0.000000
											CHANNELS 3 Xrotation Yrotation Zrotation
											JOINT mixamorig:LeftHandMiddle4
											{
												OFFSET 2.952896 0.000000 0.000000
												CHANNELS 3 Xrotation Yrotation Zrotation
												End Site
												{
													OFFSET 2.952904 0.000000 0.000165
												}
											}
										}
									}
								}
								JOINT mixamorig:LeftHandRing1
								{
									OFFSET 9.104500 -0.042999 -1.865101
									CHANNELS 6 Xposition Yposition Zposition Xrotation Yrotation Zrotation
									JOINT mixamorig:LeftHandRing2
									{
										OFFSET 3.149994 0.000000 0.000000
										CHANNELS 3 Xrotation Yrotation Zrotation
										JOINT mixamorig:LeftHandRing3
										{
											OFFSET 2.950005 0.000000 0.000000
											CHANNELS 3 Xrotation Yrotation Zrotation
											JOINT mixamorig:LeftHandRing4
											{
												OFFSET 2.644302 0.000000 0.000000
												CHANNELS 3 Xrotation Yrotation Zrotation
												End Site
												{
													OFFSET 2.644302 0.000000 0.000083
												}
											}
										}
									}
								}
								JOINT mixamorig:LeftHandPinky1
								{
									OFFSET 8.077805 -0.486893 -3.806302
									CHANNELS 6 Xposition Yposition Zposition Xrotation Yrotation Zrotation
									JOINT mixamorig:LeftHandPinky2
									{
										OFFSET 3.600006 0.000000 0.000000
										CHANNELS 3 Xrotation Yrotation Zrotation
										JOINT mixamorig:LeftHandPinky3
										{
											OFFSET 2.099998 0.000000 0.000000
											CHANNELS 3 Xrotation Yrotation Zrotation
											JOINT mixamorig:LeftHandPinky4
											{
												OFFSET 2.125496 0.000000 0.000000
												CHANNELS 3 Xrotation Yrotation Zrotation
												End Site
												{
													OFFSET 2.125504 0.000000 -0.001254
												}
											}
										}
									}
								}
							}
						}
					}
				}
			}
		}
	}
	JOINT mixamorig:RightUpLeg
	{
		OFFSET -8.207800 -6.751701 -1.599544
		CHANNELS 6 Xposition Yposition Zposition Xrotation Yrotation Zrotation
		JOINT mixamorig:RightLeg
		{
			OFFSET 0.000004 -44.370152 0.345934
			CHANNELS 3 Xrotation Yrotation Zrotation
			JOINT mixamorig:RightFoot
			{
				OFFSET 0.000004 -44.423664 -3.043535
				CHANNELS 3 Xrotation Yrotation Zrotation
				JOINT mixamorig:RightToeBase
				{
					OFFSET 0.000001 -8.728691 10.710592
					CHANNELS 3 Xrotation Yrotation Zrotation
					JOINT mixamorig:RightToe_End
					{
						OFFSET 0.000000 -0.000665 9.278101
						CHANNELS 3 Xrotation Yrotation Zrotation
						End Site
						{
							OFFSET 0.000000 -0.000665 9.278103
						}
					}
				}
			}
		}
	}
	JOINT mixamorig:LeftUpLeg
	{
		OFFSET 8.207800 -6.751701 -1.599544
		CHANNELS 6 Xposition Yposition Zposition Xrotation Yrotation Zrotation
		JOINT mixamorig:LeftLeg
		{
			OFFSET 0.000004 -44.370037 0.346940
			CHANNELS 3 Xrotation Yrotation Zrotation
			JOINT mixamorig:LeftFoot
			{
				OFFSET 0.000004 -44.423611 -3.044388
				CHANNELS 3 Xrotation Yrotation Zrotation
				JOINT mixamorig:LeftToeBase
				{
					OFFSET 0.000001 -8.728690 10.710592
					CHANNELS 3 Xrotation Yrotation Zrotation
					JOINT mixamorig:LeftToe_End
					{
						OFFSET 0.000000 -0.000680 9.278101
						CHANNELS 3 Xrotation Yrotation Zrotation
						End Site
						{
							OFFSET 0.000000 -0.000680 9.278101
						}
					}
				}
			}
		}
	}
}
MOTION
Frames: 4
Frame Time: 0.033333
0.018461 102.744682 1.443045 -2.356874 1.984623 0.987349 -0.000000 10.181554 0.131524 3.333697 0.598604 0.474263 0.930475 0.154293 0.357193 0.929583 0.162849 0.356817 -0.000000 16.740379 -2.049019 -0.320322 -0.595508 -0.636659 -0.000001 9.617869 1.684973 -4.959198 -3.942019 -5.084456 0.000001 22.037354 7.501070 -0.000000 -0.000000 0.000000 -4.570000 11.014888 -2.160840 1.738896 6.459350 4.766236 9.623767 14.510204 71.805014 0.000007 18.086003 0.000025 -22.321239 -0.194013 7.968647 -2.464795 -1.574003 2.681908 8.354550 -6.024045 -12.320085 6.910976 -10.783942 -6.236058 -2.646257 -1.527799 1.527816 11.871663 -20.189134 8.097586 -1.994597 -1.151581 1.151573 0.000003 -0.000003 -0.000000 -9.108294 -0.517872 2.259803 0.364616 3.525381 4.385939 0.267442 -2.471103 16.876974 -0.171962 0.547367 6.529339 -0.000000 0.000001 0.000005 -9.532497 0.000011 -0.000002 -0.265171 -3.235807 10.867797 0.450494 -3.079240 23.111559 0.172943 -1.528104 14.233225 -0.000000 -0.000000 0.000000 -9.103607 -0.043105 -1.865103 0.485136 -6.894911 15.016705 0.705773 -2.581426 23.646141 -0.179599 0.709360 11.249269 -0.000000 0.000001 0.000006 -8.076676 -0.486721 -3.806299 0.615735 -9.595232 19.672862 0.265515 -2.109013 23.005798 -0.708288 0.066964 19.342298 0.000000 0.000001 0.000003 4.570402 11.014667 -2.160815 1.810179 -2.691130 -3.352135 4.993667 -1.582074 -76.558853 0.000000 -18.399066 0.000002 -16.958094 -2.333137 -9.124931 2.466086 -1.576223 2.681693 15.696270 7.659708 11.558526 10.848831 14.177342 3.482128 2.647897 -1.528745 1.528756 8.828633 17.341003 6.205623 1.998925 -1.154091 1.154075 -0.000000 -0.000001 -0.000000 9.109288 -0.518012 2.259900 0.242529 2.812752 -7.580344 0.578506 3.274282 -25.422680 0.093023 1.155837 -13.561703 -0.000001 0.000001 0.000002 9.533383 0.000005 0.000002 0.822752 8.680380 -13.852646 0.589433 3.394801 -26.565896 0.229856 1.709077 -14.547087 -0.000001 -0.000001 0.000001 9.104493 -0.042985 -1.865099 2.117908 12.069422 -20.172139 0.666644 2.510559 -22.835262 0.553385 1.853423 -19.548032 -0.000000 0.000000 -0.000001 8.077784 -0.486892 -3.806299 0.382110 14.513105 -19.135888 0.258953 2.088949 -22.795772 0.334649 2.481164 -16.527323 -0.000000 0.000000 -0.000000 -8.207801 -6.751704 -1.599543 -7.044529 -11.916214 -2.035737 18.493304 1.860018 0.118169 -9.457390 -0.043411 -1.230613 -1.542562 0.000006 -0.000000 0.000000 0.000001 0.000000 8.207799 -6.751700 -1.599544 -5.454255 9.934085 7.248677 13.254405 -4.763837 -0.233893 -5.753547 0.517258 -5.658761 0.177638 0.000003 0.000001 0.000000 -0.000001 0.000000 
0.048241 102.339890 0.525720 -0.812726 1.707392 0.991065 -0.000000 10.181543 0.131524 3.834186 0.543881 0.486218 1.236783 0.106490 0.345226 1.235097 0.116925 0.344989 0.000001 16.740385 -2.049023 -0.412114 -0.558217 -0.715794 -0.000001 9.617850 1.684973 -5.240987 -3.719175 -5.213964 0.000002 22.037369 7.501075 0.000000 0.000000 -0.000000 -4.569998 11.014859 -2.160842 1.637530 6.854430 4.938638 11.043525 15.922662 69.542268 -0.000004 20.647681 0.000030 -22.937565 1.692006 6.251375 -2.464809 -1.574002 2.681906 8.564421 -5.733062 -12.157966 6.810984 -10.218077 -5.779753 -2.646277 -1.527820 1.527818 11.302969 -18.763368 8.215687 -1.994582 -1.151581 1.151573 0.000002 -0.000001 -0.000000 -9.108294 -0.517895 2.259804 0.312174 3.887636 4.337593 0.266843 -2.469078 16.856057 -0.171981 0.547353 6.529504 -0.000001 -0.000001 0.000002 -9.532509 0.000012 -0.000001 -0.265165 -3.235804 10.867793 0.450507 -3.079237 23.111577 0.172934 -1.528102 14.233248 0.000001 0.000001 0.000000 -9.103599 -0.043106 -1.865102 0.546649 -7.178231 15.061279 0.705601 -2.581107 23.642553 -0.179602 0.709353 11.249275 0.000001 -0.000001 0.000005 -8.076700 -0.486735 -3.806298 0.821215 -10.160816 19.733581 0.265518 -2.109012 23.005783 -0.708285 0.066969 19.342309 0.000001 -0.000000 0.000002 4.570405 11.014682 -2.160818 1.712778 -2.797363 -3.614596 6.455080 -4.614702 -73.923677 0.000002 -22.597380 -0.000001 -19.611464 -4.282710 -6.532031 2.466095 -1.576200 2.681702 15.619242 7.217632 11.432788 10.613976 13.450971 3.018660 2.647887 -1.528751 1.528754 8.882974 16.332634 5.883123 1.998921 -1.154092 1.154079 -0.000002 -0.000004 -0.000002 9.109284 -0.518011 2.259898 0.150512 2.124943 -7.646736 0.578513 3.274281 -25.422683 0.093014 1.155832 -13.561682 -0.000001 0.000001 0.000003 9.533403 0.000004 -0.000003 0.822758 8.680374 -13.852626 0.589422 3.394801 -26.565896 0.229864 1.709083 -14.547082 0.000000 0.000001 0.000003 9.104502 -0.042988 -1.865103 2.179896 12.264582 -20.166525 0.666579 2.510417 -22.833640 0.553387 1.853429 -19.548018 -0.000000 0.000001 0.000002 8.077801 -0.486896 -3.806303 0.598008 15.114737 -19.127161 0.258942 2.088945 -22.795775 0.334657 2.481168 -16.527323 0.000000 0.000000 -0.000002 -8.207800 -6.751720 -1.599544 -10.581437 -10.511195 -2.048666 20.995609 0.629664 -0.074651 -9.962640 0.036051 -1.041116 -1.522363 -0.000001 0.000000 -0.000000 -0.000000 0.000000 8.207797 -6.751717 -1.599545 -9.649334 8.935123 7.441972 17.381645 -3.889121 -0.129464 -6.876977 0.703386 -6.612122 -0.072993 0.000004 -0.000000 0.000000 -0.000000 0.000000 
0.250604 101.440491 -0.758303 1.832163 1.378112 1.322279 0.000000 10.181544 0.131524 4.450280 0.422193 0.098118 1.574627 0.042359 0.295128 1.572659 0.052327 0.294517 -0.000000 16.740353 -2.049020 -0.712534 -0.534222 -0.708507 -0.000001 9.617858 1.684978 -7.335931 -3.511147 -5.212681 -0.000000 22.037384 7.501076 -0.000000 0.000000 0.000000 -4.570001 11.014861 -2.160839 1.529169 7.036404 5.178923 13.862878 17.446280 66.169206 -0.000001 25.355006 0.000033 -23.182622 4.562546 2.900588 -2.464799 -1.574000 2.681909 9.214855 -4.811034 -11.671215 6.516452 -8.450738 -4.346393 -2.646255 -1.527800 1.527817 9.535485 -14.324143 8.672298 -1.994594 -1.151586 1.151575 -0.000002 0.000000 0.000001 -9.108297 -0.517868 2.259803 0.156609 5.018604 4.190163 0.264921 -2.462771 16.790710 -0.171977 0.547295 6.530016 0.000002 0.000001 -0.000001 -9.532496 0.000011 0.000001 -0.265167 -3.235800 10.867807 0.450506 -3.079238 23.111577 0.172930 -1.528096 14.233244 -0.000001 0.000001 0.000000 -9.103614 -0.043095 -1.865098 0.743773 -8.060819 15.202044 0.705062 -2.580134 23.631365 -0.179602 0.709342 11.249376 0.000001 0.000001 0.000001 -8.076696 -0.486729 -3.806296 1.478291 -11.920167 19.938652 0.265518 -2.109009 23.005783 -0.708286 0.066967 19.342312 0.000000 0.000000 -0.000000 4.570401 11.014645 -2.160813 1.600370 -2.883005 -3.931560 8.630046 -7.529828 -71.074368 -0.000006 -26.959361 -0.000011 -22.650618 -7.392362 -3.172367 2.466102 -1.576197 2.681691 15.373086 5.839791 11.037383 9.908573 11.191522 1.537819 2.647876 -1.528746 1.528752 9.034096 13.173378 4.922145 1.998932 -1.154094 1.154081 -0.000000 0.000004 0.000003 9.109306 -0.518004 2.259897 -0.141555 -0.019834 -7.860825 0.578511 3.274283 -25.422690 0.093018 1.155833 -13.561674 0.000001 0.000000 0.000001 9.533402 0.000002 -0.000001 0.822761 8.680375 -13.852625 0.589419 3.394802 -26.565893 0.229865 1.709080 -14.547091 0.000000 -0.000000 -0.000001 9.104501 -0.043009 -1.865104 2.373432 12.873354 -20.149925 0.666336 2.509979 -22.828645 0.553392 1.853432 -19.548041 0.000000 0.000000 0.000002 8.077803 -0.486895 -3.806303 1.275057 16.991554 -19.114909 0.258943 2.088945 -22.795767 0.334656 2.481165 -16.527316 0.000000 -0.000000 0.000001 -8.207801 -6.751716 -1.599542 -16.620097 -9.224649 -2.718565 25.396042 -0.206034 -0.238703 -11.032590 0.029389 -0.749884 -1.464488 -0.000003 -0.000001 -0.000000 -0.000000 -0.000000 8.207798 -6.751705 -1.599542 -15.706025 7.363847 7.248549 22.755842 -3.659826 -0.131997 -8.255536 0.969198 -7.820291 -0.390259 0.000000 -0.000002 0.000000 0.000000 0.000000 
0.452966 100.541077 -2.042325 4.478593 1.064465 1.668299 -0.000000 10.181563 0.131523 5.065527 0.296341 -0.288647 1.912415 -0.022066 0.245410 1.910169 -0.012567 0.244426 0.000000 16.740383 -2.049021 -1.012959 -0.510267 -0.701093 -0.000001 9.617851 1.684980 -9.430428 -3.303305 -5.203781 0.000000 22.037369 7.501075 0.000000 -0.000000 0.000000 -4.570000 11.014880 -2.160844 1.419994 7.217921 5.419647 16.795252 18.805848 62.693275 -0.000003 30.062330 0.000036 -23.259429 7.442481 -0.455539 -2.464806 -1.573996 2.681910 9.856619 -3.883599 -11.195582 6.178710 -6.691239 -2.909762 -2.646285 -1.527801 1.527814 7.761294 -9.900551 9.260022 -1.994598 -1.151585 1.151576 0.000003 -0.000003 -0.000000 -9.108309 -0.517874 2.259803 0.003673 6.149960 4.045533 0.263010 -2.456453 16.725363 -0.171974 0.547237 6.530534 -0.000000 -0.000001 -0.000000 -9.532504 -0.000009 0.000000 -0.265171 -3.235798 10.867818 0.450506 -3.079239 23.111566 0.172926 -1.528091 14.233234 0.000000 -0.000000 0.000001 -9.103611 -0.043109 -1.865101 0.943544 -8.942918 15.346202 0.704525 -2.579159 23.620191 -0.179601 0.709330 11.249483 -0.000001 0.000002 0.000004 -8.076696 -0.486731 -3.806297 2.146439 -13.677077 20.165905 0.265513 -2.109004 23.005780 -0.708286 0.066967 19.342315 -0.000000 0.000000 0.000002 4.570400 11.014712 -2.160817 1.487479 -2.968024 -4.248715 10.966600 -10.331205 -68.092369 -0.000011 -31.321338 -0.000021 -25.526341 -10.670310 0.044897 2.466095 -1.576208 2.681696 15.117930 4.463685 10.636900 9.149211 8.950749 0.039235 2.647890 -1.528740 1.528760 9.129716 10.012131 3.980435 1.998921 -1.154091 1.154075 0.000003 0.000001 0.000001 9.109299 -0.518007 2.259900 -0.441845 -2.163478 -8.086000 0.578507 3.274286 -25.422703 0.093022 1.155835 -13.561669 0.000001 -0.000000 0.000000 9.533399 0.000001 0.000002 0.822764 8.680382 -13.852626 0.589418 3.394803 -26.565888 0.229866 1.709078 -14.547106 0.000000 -0.000000 0.000001 9.104495 -0.042988 -1.865102 2.567268 13.482180 -20.135399 0.666093 2.509540 -22.823642 0.553398 1.853434 -19.548058 0.000001 -0.000000 0.000003 8.077811 -0.486903 -3.806300 1.958895 18.868389 -19.125961 0.258943 2.088946 -22.795760 0.334653 2.481162 -16.527306 -0.000000 -0.000000 0.000002 -8.207799 -6.751696 -1.599544 -22.622345 -7.875987 -3.245840 29.794781 -1.051856 -0.338168 -12.102499 0.017289 -0.458825 -1.406611 -0.000006 -0.000000 -0.000000 0.000000 0.000000 8.207801 -6.751708 -1.599544 -21.748982 5.821497 6.890184 28.128730 -3.431776 -0.156033 -9.628308 1.263938 -9.021830 -0.707526 -0.000002 -0.000003 0.000000 0.000000 -0.000000 
